<svg xmlns="http://www.w3.org/2000/svg" width="516.6590576171875" height="460.395263671875" viewBox="-285.4951171875 -251.5930938720703 516.6590576171875 460.395263671875"><title>Neo4j Graph Visualization</title><desc>Created using Neo4j (http://www.neo4j.com/)</desc><g class="layer relationships"><g class="relationship" transform="translate(-46.14700212155438 -20.479019559094546) rotate(438.64785729437517)"><path class="b-outline" fill="#A5ABB6" stroke="none" d="M 45 0.5 L 45.32308559539631 0.5 L 45.32308559539631 -0.5 L 45 -0.5 Z M 131.55550747039632 0.5 L 131.87859306579261 0.5 L 131.87859306579261 3.5 L 138.87859306579261 0 L 131.87859306579261 -3.5 L 131.87859306579261 -0.5 L 131.55550747039632 -0.5 Z"/><text text-anchor="middle" pointer-events="none" font-size="12px" fill="#000000" x="88.43929653289631" y="5" font-family="Helvetica Neue, Helvetica, Arial, sans-serif">AT_COUNTRY</text></g><g class="relationship" transform="translate(-46.14700212155438 -20.479019559094546) rotate(359.70516150492654)"><path class="b-outline" fill="#A5ABB6" stroke="none" d="M 45 0.5 L 67.76049875104317 0.5 L 67.76049875104317 -0.5 L 45 -0.5 Z M 153.55346750104317 0.5 L 176.31396625208635 0.5 L 176.31396625208635 3.5 L 183.31396625208635 0 L 176.31396625208635 -3.5 L 176.31396625208635 -0.5 L 153.55346750104317 -0.5 Z"/><text text-anchor="middle" pointer-events="none" font-size="12px" fill="#000000" x="110.65698312604317" y="5" font-family="Helvetica Neue, Helvetica, Arial, sans-serif">IN_INDUSTRY</text></g><g class="relationship" transform="translate(-46.14700212155438 -20.479019559094546) rotate(321.9541409204077)"><path class="b-outline" fill="#A5ABB6" stroke="none" d="M 45 0.5 L 61.40423725727564 0.5 L 61.40423725727564 -0.5 L 45 -0.5 Z M 115.85540913227564 0.5 L 132.25964638955128 0.5 L 132.25964638955128 3.5 L 139.25964638955128 0 L 132.25964638955128 -3.5 L 132.25964638955128 -0.5 L 115.85540913227564 -0.5 Z"/><text text-anchor="middle" pointer-events="none" font-size="12px" fill="#000000" x="88.62982319477564" y="5" font-family="Helvetica Neue, Helvetica, Arial, sans-serif">AT_CITY</text></g><g class="relationship" transform="translate(-46.14700212155438 -20.479019559094546) rotate(277.2520231263457)"><path class="b-outline" fill="#A5ABB6" stroke="none" d="M 45 0.5 L 56.28741504089486 0.5 L 56.28741504089486 -0.5 L 45 -0.5 Z M 120.29522754089486 0.5 L 131.5826425817897 0.5 L 131.5826425817897 3.5 L 138.5826425817897 0 L 131.5826425817897 -3.5 L 131.5826425817897 -0.5 L 120.29522754089486 -0.5 Z"/><text text-anchor="middle" pointer-events="none" font-size="12px" fill="#000000" x="88.29132129089486" y="5" font-family="Helvetica Neue, Helvetica, Arial, sans-serif">AT_STATE</text></g><g class="relationship" transform="translate(-46.14700212155438 -20.479019559094546) rotate(226.08151052423682)"><path class="b-outline" fill="#A5ABB6" stroke="none" d="M 45 0.5 L 53.205999446582055 0.5 L 53.205999446582055 -0.5 L 45 -0.5 Z M 138.55951507158204 0.5 L 146.7655145181641 0.5 L 146.7655145181641 3.5 L 153.7655145181641 0 L 146.7655145181641 -3.5 L 146.7655145181641 -0.5 L 138.55951507158204 -0.5 Z"/><text text-anchor="middle" pointer-events="none" font-size="12px" fill="#000000" x="95.88275725908206" y="5" transform="rotate(180 95.88275725908206 0)" font-family="Helvetica Neue, Helvetica, Arial, sans-serif">FACING_RISK</text></g><g class="relationship" transform="translate(-46.14700212155438 -20.479019559094546) rotate(536.0780684751574)"><path class="b-outline" fill="#A5ABB6" stroke="none" d="M 45 0.5 L 45.88965860265424 0.5 L 45.88965860265424 -0.5 L 45 -0.5 Z M 137.90528360265424 0.5 L 138.79494220530847 0.5 L 138.79494220530847 3.5 L 145.79494220530847 0 L 138.79494220530847 -3.5 L 138.79494220530847 -0.5 L 137.90528360265424 -0.5 Z"/><text text-anchor="middle" pointer-events="none" font-size="12px" fill="#000000" x="91.89747110265424" y="5" transform="rotate(180 91.89747110265424 0)" font-family="Helvetica Neue, Helvetica, Arial, sans-serif">PROVIDING_…</text></g><g class="relationship" transform="translate(-46.14700212155438 -20.479019559094546) rotate(492.40817538713634)"><path class="b-outline" fill="#A5ABB6" stroke="none" d="M 45 0.5 L 52.83598797572678 0.5 L 52.83598797572678 -0.5 L 45 -0.5 Z M 138.18950360072677 0.5 L 146.02549157645356 0.5 L 146.02549157645356 3.5 L 153.02549157645356 0 L 146.02549157645356 -3.5 L 146.02549157645356 -0.5 L 138.18950360072677 -0.5 Z"/><text text-anchor="middle" pointer-events="none" font-size="12px" fill="#000000" x="95.51274578822678" y="5" transform="rotate(180 95.51274578822678 0)" font-family="Helvetica Neue, Helvetica, Arial, sans-serif">FACING_RISK</text></g><g class="relationship" transform="translate(-46.14700212155438 -20.479019559094546) rotate(396.8452161750795)"><path class="b-outline" fill="#A5ABB6" stroke="none" d="M 45 0.5 L 54.74462629071023 0.5 L 54.74462629071023 -0.5 L 45 -0.5 Z M 177.43407941571024 0.5 L 187.17870570642046 0.5 L 187.17870570642046 3.5 L 194.17870570642046 0 L 187.17870570642046 -3.5 L 187.17870570642046 -0.5 L 177.43407941571024 -0.5 Z"/><text text-anchor="middle" pointer-events="none" font-size="12px" fill="#000000" x="116.08935285321023" y="5" font-family="Helvetica Neue, Helvetica, Arial, sans-serif">IN_BUSINESS_WITH</text></g></g><g class="layer nodes"><g class="node" aria-label="graph-node2720" transform="translate(-9.952618804417035,159.80215972523197)"><circle class="b-outline" cx="0" cy="0" r="45" fill="#F16667" stroke="#eb2728" stroke-width="2px"/><text class="caption" text-anchor="middle" pointer-events="none" x="0" y="6" font-size="12px" fill="#FFFFFF" font-family="Helvetica Neue, Helvetica, Arial, sans-serif"> U.S.</text></g><g class="node" aria-label="graph-node2733" transform="translate(182.16394122461008,-21.65389578376851)"><circle class="b-outline" cx="0" cy="0" r="45" fill="#4C8EDA" stroke="#2870c2" stroke-width="2px"/><text class="caption" text-anchor="middle" pointer-events="none" x="0" y="6" font-size="12px" fill="#FFFFFF" font-family="Helvetica Neue, Helvetica, Arial, sans-serif"> Retail</text></g><g class="node" aria-label="graph-node3430" transform="translate(98.96073647596005,-134.03676472303263)"><circle class="b-outline" cx="0" cy="0" r="45" fill="#DA7194" stroke="#cc3c6c" stroke-width="2px"/><text class="caption" text-anchor="middle" pointer-events="none" x="0" y="6" font-size="12px" fill="#FFFFFF" font-family="Helvetica Neue, Helvetica, Arial, sans-serif"> Goodlettsville</text></g><g class="node" aria-label="graph-node3532" transform="translate(-22.972631374853844,-202.5930914970083)"><circle class="b-outline" cx="0" cy="0" r="45" fill="#ECB5C9" stroke="#da7298" stroke-width="2px"/><text class="caption" text-anchor="middle" pointer-events="none" x="0" y="6" font-size="12px" fill="#2A2C34" font-family="Helvetica Neue, Helvetica, Arial, sans-serif"> Tennessee</text></g><g class="node" aria-label="graph-node3770" transform="translate(-184.01758375269182,-163.65524832058404)"><circle class="b-outline" cx="0" cy="0" r="45" fill="#F79767" stroke="#f36924" stroke-width="2px"/><text class="caption" text-anchor="middle" pointer-events="none" x="0" y="0" font-size="12px" fill="#2A2C34" font-family="Helvetica Neue, Helvetica, Arial, sans-serif"> workplace</text><text class="caption" text-anchor="middle" pointer-events="none" x="0" y="12" font-size="12px" fill="#2A2C34" font-family="Helvetica Neue, Helvetica, Arial, sans-serif"> safety</text></g><g class="node" aria-label="graph-node3905" transform="translate(-46.14700212155438,-20.479019559094546)"><circle class="b-outline" cx="0" cy="0" r="45" fill="#569480" stroke="#447666" stroke-width="2px"/><text class="caption" text-anchor="middle" pointer-events="none" x="0" y="-7.5" font-size="15px" fill="#2A2C34" font-family="Helvetica Neue, Helvetica, Arial, sans-serif"> Dollar</text><text class="caption" text-anchor="middle" pointer-events="none" x="0" y="7.5" font-size="15px" fill="#2A2C34" font-family="Helvetica Neue, Helvetica, Arial, sans-serif"> General</text><text class="caption" text-anchor="middle" pointer-events="none" x="0" y="22.5" font-size="15px" fill="#2A2C34" font-family="Helvetica Neue, Helvetica, Arial, sans-serif"> Corp.</text></g><g class="node" aria-label="graph-node5220" transform="translate(-236.4951352050361,-7.429184205338785)"><circle class="b-outline" cx="0" cy="0" r="45" fill="#D9C8AE" stroke="#c0a378" stroke-width="2px"/><text class="caption" text-anchor="middle" pointer-events="none" x="0" y="6" font-size="12px" fill="#2A2C34" font-family="Helvetica Neue, Helvetica, Arial, sans-serif"> Retail</text></g><g class="node" aria-label="graph-node15111" transform="translate(-179.69692814197907,125.73490786929776)"><circle class="b-outline" cx="0" cy="0" r="45" fill="#F79767" stroke="#f36924" stroke-width="2px"/><text class="caption" text-anchor="middle" pointer-events="none" x="0" y="6" font-size="12px" fill="#2A2C34" font-family="Helvetica Neue, Helvetica, Arial, sans-serif"> public health</text></g><g class="node" aria-label="graph-node15112" transform="translate(145.25776371533925,122.94576518302176)"><circle class="b-outline" cx="0" cy="0" r="45" fill="#569480" stroke="#447666" stroke-width="2px"/><text class="caption" text-anchor="middle" pointer-events="none" x="0" y="-7.5" font-size="15px" fill="#2A2C34" font-family="Helvetica Neue, Helvetica, Arial, sans-serif"> Goodwill</text><text class="caption" text-anchor="middle" pointer-events="none" x="0" y="7.5" font-size="15px" fill="#2A2C34" font-family="Helvetica Neue, Helvetica, Arial, sans-serif"> Easterseals</text><text class="caption" text-anchor="middle" pointer-events="none" x="0" y="22.5" font-size="15px" fill="#2A2C34" font-family="Helvetica Neue, Helvetica, Arial, sans-serif"> Miami V</text></g></g></svg>